<svg xmlns="http://www.w3.org/2000/svg" clip-rule="evenodd" viewBox="0 0 570 500">
  <defs>
    <radialGradient id="a" cx="86.63" cy="167.069" r="54.715" gradientTransform="translate(11.032 11.296)" gradientUnits="userSpaceOnUse">
      <stop offset="0" stop-color="#FFF"/>
      <stop offset=".06" stop-color="#FBC8B4"/>
      <stop offset=".071" stop-color="#FBC3B0"/>
      <stop offset=".183" stop-color="#F7978B"/>
      <stop offset=".299" stop-color="#F4716B"/>
      <stop offset=".42" stop-color="#F15251"/>
      <stop offset=".545" stop-color="#EF3A3D"/>
      <stop offset=".678" stop-color="#EE292F"/>
      <stop offset=".822" stop-color="#ED1F27"/>
      <stop offset="1" stop-color="#ED1C24"/>
    </radialGradient>
  </defs>
  <g>
    <path fill-rule="evenodd" d="M59.89 54.814c8.425 17.64 2.737 140.832-7.127 184.032-9.864 43.272-19.728 98.28-22.032 144.576-1.008 19.728 2.016 27.504 14.904 27.504 22.752 0 51.624-47.952 87.84-46.872 36.288 1.08 47.808 55.008 64.8 54.648 16.992-.36 30.672-6.264 30.816-58.752.504-156.673-130.824-283.681-169.2-305.136z"/>
    <path fill-rule="evenodd" d="M173.795 180.022c7.992 13.464 28.368 3.096 29.232-12.096.864-15.192-1.368-34.344-11.232-35.064-9.864-.72-16.92-10.584-26.784-11.304-9.864-.72-20.448 9.144-25.056-3.96s12.384-18.648 25.056-20.736c-11.304-11.304-17.928-23.832-22.896-36.864-4.968-13.032-8.64-24.984 5.256-30.096 13.896-5.112 12.744 21.168 28.656 33.192-4.68-17.712-6.408-25.056-6.048-35.352s-.36-18.144 14.256-16.128c14.616 2.016 8.28 32.4 19.656 44.784 3.456-11.736 5.544-26.64 13.896-32.76s27.36-6.264 15.264 18.864 3.528 38.736-.144 58.536c-3.672 19.8-15.048 16.2-19.944 28.944-4.896 12.744 2.88 41.76-6.336 54.792-9.216 13.032-10.872 33.048-4.896 49.032-18.36-17.136-27.936-53.784-27.936-53.784zM59.387 196.942c-7.416 50.832-33.192 56.88-34.488 77.976-1.296 21.096 6.84 23.112 6.336 42.624-.504 19.512-17.856 27.432-19.944 38.016s8.928 13.968 15.336 13.968c6.408 0 12.816-28.08 15.408-45.936s-8.496-28.368-8.496-40.608c0-12.24 16.056-34.632 13.104-14.976 13.32-21.024 19.657-47.81 12.744-71.064z"/>
    <path fill="#FFF" fill-rule="evenodd" d="M69.324 216.309c-5.616 27.504-40.68 181.08-22.824 183.024 17.856 1.944 43.272-47.52 84.888-47.16 41.688.36 58.104 55.44 68.256 55.08 10.152-.36 16.848 3.6 17.928-58.464 1.08-62.064-36.792-141.336-59.184-176.256-30.385 1.944-63.073 26.28-89.064 43.776z"/>
    <path fill="none" d="M150.194 183.477c-1.95-18.251-19.12-25.421-35.661-23.168-13.89 1.893-32.403 13.613-34.107 28.64-1.921 16.937 11.402 32.522 28.36 33.203 15.03.604 31.177-6.668 37.93-20.79 2.73-5.704 3.798-11.578 3.478-17.885"/>
    <path d="M158.114 182.829c-1.662-17.195-14.407-27.988-30.895-30.627-15.924-2.55-33.26 4.998-44.408 16.146-12.538 12.538-13.04 29.978-4.26 44.833 8.66 14.657 27.847 19.5 43.563 15.835 21.506-5.015 37.398-23.824 36-46.187"/>
    <path fill="url(#a)" stroke="#000" d="M150.194 189.237c-1.493 15.627-13.947 28.182-28.944 31.824-15.87 3.854-33.393-2.257-39.096-18.576-2.912-8.332-2.37-16.88 2.637-24.198 4.223-6.171 11.033-11 17.779-14.066 13.924-6.326 33.832-7.03 43.53 7.077 3.676 5.346 4.319 11.639 4.094 17.939"/>
  </g>
  <g>
    <path fill="#A52B00" d="M351.87 305.987c-43.468 0-82.757 5.227-112.344 13.743v-1.924c-29.587 9.52-48.432 22.744-48.432 37.366 0 2.305.51 4.575 1.404 6.802l-3.028 5.432s-2.433 3.17 1.872 9.862c3.797 5.9 22.821 28.995 32.86 41.088 4.312 6.201 7.238 10.02 7.494 9.65.403-.585-2.68-12.225-11.243-25.506-3.995-7.134-8.86-16.584-11.724-23.564 7.997 5.061 18.659 9.652 30.797 13.603v-.06c29.587 8.517 68.876 13.742 112.345 13.742 49.75 0 94.386-6.845 124.353-17.635v-64.962c-29.967-10.79-74.603-17.637-124.353-17.637M520.935 366.236l-5.096-10.556c.027-.4.048-.802.048-1.204 0-11.967-12.444-22.995-33.38-31.826V386.3c9.768-4.12 17.694-8.718 23.361-13.67-1.668 6.708-7.373 20.277-11.921 29.82-7.475 13.648-10.183 25.529-9.836 26.117.222.37 2.772-3.563 6.533-9.938 8.752-12.471 25.336-36.279 28.65-42.343 3.755-6.875 1.64-10.051 1.64-10.051"/>
    <path fill="#F74C00" d="M550.522 366.176l-33.493-24.672a324.61 324.61 0 00-.954-3.285l11.001-15.937c1.123-1.621 1.35-3.729.62-5.577-.73-1.84-2.327-3.16-4.217-3.482l-18.603-3.157c-.72-1.471-1.475-2.92-2.234-4.356l7.816-17.893a5.943 5.943 0 00-.432-5.596c-1.061-1.662-2.864-2.633-4.786-2.557l-18.88.686a155.994 155.994 0 00-2.983-3.773l4.339-19.178c.44-1.947-.115-3.986-1.472-5.401-1.348-1.41-3.308-1.993-5.172-1.537l-18.389 4.522a156.905 156.905 0 00-3.626-3.11l.662-19.689c.072-1.993-.858-3.887-2.453-4.993a5.328 5.328 0 00-5.363-.454l-17.155 8.157c-1.381-.793-2.77-1.578-4.175-2.338l-3.031-19.402c-.308-1.965-1.573-3.635-3.344-4.398a5.32 5.32 0 00-5.34.65l-15.294 11.475c-1.506-.5-3.019-.98-4.55-1.439l-6.593-18.398c-.67-1.876-2.216-3.253-4.1-3.64-1.88-.385-3.812.266-5.115 1.721l-12.874 14.403a170.7 170.7 0 00-4.675-.477l-9.942-16.749c-1.007-1.696-2.785-2.728-4.702-2.728-1.912 0-3.694 1.032-4.693 2.728l-9.944 16.749a169.72 169.72 0 00-4.681.477l-12.875-14.403c-1.304-1.455-3.244-2.106-5.116-1.722-1.884.393-3.431 1.765-4.1 3.64l-6.597 18.4c-1.527.458-3.04.94-4.55 1.438l-15.29-11.476a5.318 5.318 0 00-5.348-.649c-1.764.763-3.033 2.433-3.34 4.398l-3.033 19.402c-1.403.76-2.793 1.54-4.177 2.338l-17.154-8.157a5.316 5.316 0 00-5.362.454c-1.593 1.106-2.525 3-2.453 4.993l.659 19.69a179.78 179.78 0 00-3.626 3.109l-18.385-4.522c-1.869-.453-3.826.127-5.178 1.537-1.36 1.415-1.912 3.454-1.474 5.4l4.33 19.18a183.526 183.526 0 00-2.973 3.772l-18.88-.686c-1.905-.056-3.724.895-4.788 2.557-1.067 1.655-1.228 3.773-.435 5.596l7.822 17.893a173.296 173.296 0 00-2.24 4.356l-18.603 3.157c-1.89.319-3.483 1.637-4.218 3.482a5.996 5.996 0 00.622 5.577l11.004 15.937c-.085.281-.163.566-.248.847l-31.112 33.048s-4.764 3.736 2.174 12.518c6.122 7.746 37.55 38.454 54.149 54.543 7.01 8.167 11.813 13.225 12.315 12.787.792-.695-3.365-15.554-17.174-32.99-10.644-15.642-24.458-39.702-21.22-42.475 0 0 3.686-4.677 11.079-8.044.27.217-.28-.214 0 0 0 0 156.02 71.971 300.744 1.218 16.533-2.966 26.54 5.89 26.54 5.89 3.452 2.001-5.485 26.74-12.835 43.116-9.996 18.596-11.462 33.106-10.614 33.609.535.32 4.172-5.215 9.36-14.022 12.8-17.837 36.998-51.84 41.427-60.1 5.022-9.364 0-11.988 0-11.988"/>
    <path d="M405.615 411.765c.597-.51.91-.812.91-.812l-51.076-4.744c41.689-54.996 75.056-10.628 78.61-5.73v11.286h-28.444z"/>
    <path fill="#F74C00" d="M209.339 351.172s-42.141-16.406-49.265-34.062c0 0 49.46-39.343-9.719-81.132l-1.604 53.263s-17.534-16.915-16.76-46.536c0 0-54.537 26.24 9.284 72.67 0 0 2.153 24.92 59.545 55.007l8.519-19.21z"/>
    <path d="M380.615 328.67s15.592-17.073 31.184 0c0 0 12.251 22.764 0 34.145 0 0-20.047 15.935-31.184 0 0 0-13.364-12.52 0-34.145"/>
    <path fill="#fff" d="M398.666 335.003c0 6.647-3.918 12.036-8.751 12.036-4.832 0-8.75-5.389-8.75-12.036 0-6.649 3.918-12.039 8.75-12.039 4.833 0 8.751 5.39 8.751 12.04"/>
    <path d="M311.025 324.008s26.745-11.842 34.045 14.59c0 0 7.647 30.807-21.963 32.546 0 0-37.758-7.272-12.082-47.136"/>
    <path fill="#fff" d="M324.458 335.439c0 6.855-4.041 12.415-9.026 12.415-4.983 0-9.024-5.56-9.024-12.415 0-6.857 4.041-12.416 9.024-12.416 4.985 0 9.026 5.559 9.026 12.416"/>
    <path fill="#F74C00" d="M483.898 357.636s-5.585 22.245-40.319 45.62l-9.74 2.283s-31.51-57.46-76.149 7.29c0 0 13.912-8.1 51.209 1.765 0 0-17.157 26.259-51.718 25.452 0 0 33.12 39.734 83.52-17.66 0 0 53.277-20.602 57.598-64.75h-14.401z"/>
  </g>
</svg>
